<svg xmlns="http://www.w3.org/2000/svg" width="1000" height="800"><rect width="1000" height="800" x="0" y="0" fill="#f7f2f2" id="backgorund"/><g transform="translate(150,100)" id="viz"><g fill="none" font-size="10" font-family="sans-serif" text-anchor="middle"><path class="domain" stroke="currentColor" d="M0.5,0.5H513.6578947368421"/><g class="tick" opacity="1" transform="translate(11.050643770837112,0)"><line stroke="currentColor" y2="-6"/><text fill="currentColor" y="-9" dy="3.4641016151377544" dx="3.4641016151377544" text-anchor="start" transform="rotate(-45)">205</text></g><g class="tick" opacity="1" transform="translate(27.9836302258429,0)"><line stroke="currentColor" y2="-6"/><text fill="currentColor" y="-9" dy="3.4641016151377544" dx="3.4641016151377544" text-anchor="start" transform="rotate(-45)">25</text></g><g class="tick" opacity="1" transform="translate(44.91661668084869,0)"><line stroke="currentColor" y2="-6"/><text fill="currentColor" y="-9" dy="3.4641016151377544" dx="3.4641016151377544" text-anchor="start" transform="rotate(-45)">91</text></g><g class="tick" opacity="1" transform="translate(61.84960313585448,0)"><line stroke="currentColor" y2="-6"/><text fill="currentColor" y="-9" dy="3.4641016151377544" dx="3.4641016151377544" text-anchor="start" transform="rotate(-45)">425</text></g><g class="tick" opacity="1" transform="translate(78.78258959086027,0)"><line stroke="currentColor" y2="-6"/><text fill="currentColor" y="-9" dy="3.4641016151377544" dx="3.4641016151377544" text-anchor="start" transform="rotate(-45)">70</text></g><g class="tick" opacity="1" transform="translate(95.71557604586606,0)"><line stroke="currentColor" y2="-6"/><text fill="currentColor" y="-9" dy="3.4641016151377544" dx="3.4641016151377544" text-anchor="start" transform="rotate(-45)">210</text></g><g class="tick" opacity="1" transform="translate(112.64856250087185,0)"><line stroke="currentColor" y2="-6"/><text fill="currentColor" y="-9" dy="3.4641016151377544" dx="3.4641016151377544" text-anchor="start" transform="rotate(-45)">140</text></g><g class="tick" opacity="1" transform="translate(129.58154895587765,0)"><line stroke="currentColor" y2="-6"/><text fill="currentColor" y="-9" dy="3.4641016151377544" dx="3.4641016151377544" text-anchor="start" transform="rotate(-45)">30</text></g><g class="tick" opacity="1" transform="translate(146.51453541088344,0)"><line stroke="currentColor" y2="-6"/><text fill="currentColor" y="-9" dy="3.4641016151377544" dx="3.4641016151377544" text-anchor="start" transform="rotate(-45)">90</text></g><g class="tick" opacity="1" transform="translate(163.44752186588923,0)"><line stroke="currentColor" y2="-6"/><text fill="currentColor" y="-9" dy="3.4641016151377544" dx="3.4641016151377544" text-anchor="start" transform="rotate(-45)">160</text></g><g class="tick" opacity="1" transform="translate(180.38050832089502,0)"><line stroke="currentColor" y2="-6"/><text fill="currentColor" y="-9" dy="3.4641016151377544" dx="3.4641016151377544" text-anchor="start" transform="rotate(-45)">50</text></g><g class="tick" opacity="1" transform="translate(197.3134947759008,0)"><line stroke="currentColor" y2="-6"/><text fill="currentColor" y="-9" dy="3.4641016151377544" dx="3.4641016151377544" text-anchor="start" transform="rotate(-45)">295</text></g><g class="tick" opacity="1" transform="translate(214.2464812309066,0)"><line stroke="currentColor" y2="-6"/><text fill="currentColor" y="-9" dy="3.4641016151377544" dx="3.4641016151377544" text-anchor="start" transform="rotate(-45)">390</text></g><g class="tick" opacity="1" transform="translate(231.17946768591239,0)"><line stroke="currentColor" y2="-6"/><text fill="currentColor" y="-9" dy="3.4641016151377544" dx="3.4641016151377544" text-anchor="start" transform="rotate(-45)">130</text></g><g class="tick" opacity="1" transform="translate(248.11245414091817,0)"><line stroke="currentColor" y2="-6"/><text fill="currentColor" y="-9" dy="3.4641016151377544" dx="3.4641016151377544" text-anchor="start" transform="rotate(-45)">65</text></g><g class="tick" opacity="1" transform="translate(265.04544059592394,0)"><line stroke="currentColor" y2="-6"/><text fill="currentColor" y="-9" dy="3.4641016151377544" dx="3.4641016151377544" text-anchor="start" transform="rotate(-45)">80</text></g><g class="tick" opacity="1" transform="translate(281.9784270509297,0)"><line stroke="currentColor" y2="-6"/><text fill="currentColor" y="-9" dy="3.4641016151377544" dx="3.4641016151377544" text-anchor="start" transform="rotate(-45)">60</text></g><g class="tick" opacity="1" transform="translate(298.9114135059355,0)"><line stroke="currentColor" y2="-6"/><text fill="currentColor" y="-9" dy="3.4641016151377544" dx="3.4641016151377544" text-anchor="start" transform="rotate(-45)">225</text></g><g class="tick" opacity="1" transform="translate(315.8443999609413,0)"><line stroke="currentColor" y2="-6"/><text fill="currentColor" y="-9" dy="3.4641016151377544" dx="3.4641016151377544" text-anchor="start" transform="rotate(-45)">75</text></g><g class="tick" opacity="1" transform="translate(332.7773864159471,0)"><line stroke="currentColor" y2="-6"/><text fill="currentColor" y="-9" dy="3.4641016151377544" dx="3.4641016151377544" text-anchor="start" transform="rotate(-45)">20</text></g><g class="tick" opacity="1" transform="translate(349.7103728709529,0)"><line stroke="currentColor" y2="-6"/><text fill="currentColor" y="-9" dy="3.4641016151377544" dx="3.4641016151377544" text-anchor="start" transform="rotate(-45)">85</text></g><g class="tick" opacity="1" transform="translate(366.64335932595867,0)"><line stroke="currentColor" y2="-6"/><text fill="currentColor" y="-9" dy="3.4641016151377544" dx="3.4641016151377544" text-anchor="start" transform="rotate(-45)">21</text></g><g class="tick" opacity="1" transform="translate(383.57634578096446,0)"><line stroke="currentColor" y2="-6"/><text fill="currentColor" y="-9" dy="3.4641016151377544" dx="3.4641016151377544" text-anchor="start" transform="rotate(-45)">1320</text></g><g class="tick" opacity="1" transform="translate(400.50933223597025,0)"><line stroke="currentColor" y2="-6"/><text fill="currentColor" y="-9" dy="3.4641016151377544" dx="3.4641016151377544" text-anchor="start" transform="rotate(-45)">345</text></g><g class="tick" opacity="1" transform="translate(417.44231869097604,0)"><line stroke="currentColor" y2="-6"/><text fill="currentColor" y="-9" dy="3.4641016151377544" dx="3.4641016151377544" text-anchor="start" transform="rotate(-45)">330</text></g><g class="tick" opacity="1" transform="translate(434.3753051459818,0)"><line stroke="currentColor" y2="-6"/><text fill="currentColor" y="-9" dy="3.4641016151377544" dx="3.4641016151377544" text-anchor="start" transform="rotate(-45)">240</text></g><g class="tick" opacity="1" transform="translate(451.3082916009876,0)"><line stroke="currentColor" y2="-6"/><text fill="currentColor" y="-9" dy="3.4641016151377544" dx="3.4641016151377544" text-anchor="start" transform="rotate(-45)">465</text></g><g class="tick" opacity="1" transform="translate(468.2412780559934,0)"><line stroke="currentColor" y2="-6"/><text fill="currentColor" y="-9" dy="3.4641016151377544" dx="3.4641016151377544" text-anchor="start" transform="rotate(-45)">600</text></g><g class="tick" opacity="1" transform="translate(485.1742645109992,0)"><line stroke="currentColor" y2="-6"/><text fill="currentColor" y="-9" dy="3.4641016151377544" dx="3.4641016151377544" text-anchor="start" transform="rotate(-45)">120</text></g><g class="tick" opacity="1" transform="translate(502.107250966005,0)"><line stroke="currentColor" y2="-6"/><text fill="currentColor" y="-9" dy="3.4641016151377544" dx="3.4641016151377544" text-anchor="start" transform="rotate(-45)">2658</text></g></g><g fill="none" font-size="10" font-family="sans-serif" text-anchor="end"><path class="domain" stroke="currentColor" d="M0.5,0.5V650.5"/><g class="tick" opacity="1" transform="translate(0,11.074124554413913)"><line stroke="currentColor" x2="-6"/><text fill="currentColor" x="-9" dy="0.32em">Bañarse</text></g><g class="tick" opacity="1" transform="translate(0,28.043090794715862)"><line stroke="currentColor" x2="-6"/><text fill="currentColor" x="-9" dy="0.32em">Afeitarse</text></g><g class="tick" opacity="1" transform="translate(0,45.01205703501781)"><line stroke="currentColor" x2="-6"/><text fill="currentColor" x="-9" dy="0.32em">Cambiarme</text></g><g class="tick" opacity="1" transform="translate(0,61.98102327531976)"><line stroke="currentColor" x2="-6"/><text fill="currentColor" x="-9" dy="0.32em">Necesidades</text></g><g class="tick" opacity="1" transform="translate(0,78.94998951562171)"><line stroke="currentColor" x2="-6"/><text fill="currentColor" x="-9" dy="0.32em">Te</text></g><g class="tick" opacity="1" transform="translate(0,95.91895575592366)"><line stroke="currentColor" x2="-6"/><text fill="currentColor" x="-9" dy="0.32em">Mate</text></g><g class="tick" opacity="1" transform="translate(0,112.8879219962256)"><line stroke="currentColor" x2="-6"/><text fill="currentColor" x="-9" dy="0.32em">Agua</text></g><g class="tick" opacity="1" transform="translate(0,129.85688823652757)"><line stroke="currentColor" x2="-6"/><text fill="currentColor" x="-9" dy="0.32em">Vino</text></g><g class="tick" opacity="1" transform="translate(0,146.8258544768295)"><line stroke="currentColor" x2="-6"/><text fill="currentColor" x="-9" dy="0.32em">Cerveza</text></g><g class="tick" opacity="1" transform="translate(0,163.79482071713144)"><line stroke="currentColor" x2="-6"/><text fill="currentColor" x="-9" dy="0.32em">Licuados</text></g><g class="tick" opacity="1" transform="translate(0,180.7637869574334)"><line stroke="currentColor" x2="-6"/><text fill="currentColor" x="-9" dy="0.32em">Desayuno</text></g><g class="tick" opacity="1" transform="translate(0,197.73275319773535)"><line stroke="currentColor" x2="-6"/><text fill="currentColor" x="-9" dy="0.32em">Merienda</text></g><g class="tick" opacity="1" transform="translate(0,214.7017194380373)"><line stroke="currentColor" x2="-6"/><text fill="currentColor" x="-9" dy="0.32em">Almuerzo</text></g><g class="tick" opacity="1" transform="translate(0,231.67068567833925)"><line stroke="currentColor" x2="-6"/><text fill="currentColor" x="-9" dy="0.32em">Cena</text></g><g class="tick" opacity="1" transform="translate(0,248.6396519186412)"><line stroke="currentColor" x2="-6"/><text fill="currentColor" x="-9" dy="0.32em">Carrefour</text></g><g class="tick" opacity="1" transform="translate(0,265.60861815894316)"><line stroke="currentColor" x2="-6"/><text fill="currentColor" x="-9" dy="0.32em">El Chino</text></g><g class="tick" opacity="1" transform="translate(0,282.5775843992451)"><line stroke="currentColor" x2="-6"/><text fill="currentColor" x="-9" dy="0.32em">Almacen</text></g><g class="tick" opacity="1" transform="translate(0,299.54655063954704)"><line stroke="currentColor" x2="-6"/><text fill="currentColor" x="-9" dy="0.32em">Carniceria</text></g><g class="tick" opacity="1" transform="translate(0,316.515516879849)"><line stroke="currentColor" x2="-6"/><text fill="currentColor" x="-9" dy="0.32em">Verdularía</text></g><g class="tick" opacity="1" transform="translate(0,333.48448312015097)"><line stroke="currentColor" x2="-6"/><text fill="currentColor" x="-9" dy="0.32em">Colegio</text></g><g class="tick" opacity="1" transform="translate(0,350.4534493604529)"><line stroke="currentColor" x2="-6"/><text fill="currentColor" x="-9" dy="0.32em">Uom</text></g><g class="tick" opacity="1" transform="translate(0,367.42241560075485)"><line stroke="currentColor" x2="-6"/><text fill="currentColor" x="-9" dy="0.32em">Pago de Servicios.</text></g><g class="tick" opacity="1" transform="translate(0,384.3913818410568)"><line stroke="currentColor" x2="-6"/><text fill="currentColor" x="-9" dy="0.32em">Cajero Automático</text></g><g class="tick" opacity="1" transform="translate(0,401.3603480813587)"><line stroke="currentColor" x2="-6"/><text fill="currentColor" x="-9" dy="0.32em">Barrer el Pasillo</text></g><g class="tick" opacity="1" transform="translate(0,418.32931432166066)"><line stroke="currentColor" x2="-6"/><text fill="currentColor" x="-9" dy="0.32em">Lavarropa</text></g><g class="tick" opacity="1" transform="translate(0,435.29828056196266)"><line stroke="currentColor" x2="-6"/><text fill="currentColor" x="-9" dy="0.32em">Hacer la Cama</text></g><g class="tick" opacity="1" transform="translate(0,452.2672468022646)"><line stroke="currentColor" x2="-6"/><text fill="currentColor" x="-9" dy="0.32em">Colgar la ropa</text></g><g class="tick" opacity="1" transform="translate(0,469.23621304256653)"><line stroke="currentColor" x2="-6"/><text fill="currentColor" x="-9" dy="0.32em">Hacer la Comida</text></g><g class="tick" opacity="1" transform="translate(0,486.20517928286847)"><line stroke="currentColor" x2="-6"/><text fill="currentColor" x="-9" dy="0.32em">Google Meet</text></g><g class="tick" opacity="1" transform="translate(0,503.1741455231704)"><line stroke="currentColor" x2="-6"/><text fill="currentColor" x="-9" dy="0.32em">Programar</text></g><g class="tick" opacity="1" transform="translate(0,520.1431117634725)"><line stroke="currentColor" x2="-6"/><text fill="currentColor" x="-9" dy="0.32em">Capacitación</text></g><g class="tick" opacity="1" transform="translate(0,537.1120780037744)"><line stroke="currentColor" x2="-6"/><text fill="currentColor" x="-9" dy="0.32em">Relevamientos</text></g><g class="tick" opacity="1" transform="translate(0,554.0810442440763)"><line stroke="currentColor" x2="-6"/><text fill="currentColor" x="-9" dy="0.32em">Caminar</text></g><g class="tick" opacity="1" transform="translate(0,571.0500104843783)"><line stroke="currentColor" x2="-6"/><text fill="currentColor" x="-9" dy="0.32em">Mobile</text></g><g class="tick" opacity="1" transform="translate(0,588.0189767246802)"><line stroke="currentColor" x2="-6"/><text fill="currentColor" x="-9" dy="0.32em">ITBA</text></g><g class="tick" opacity="1" transform="translate(0,604.9879429649822)"><line stroke="currentColor" x2="-6"/><text fill="currentColor" x="-9" dy="0.32em">Netflix-Disney-Tv</text></g><g class="tick" opacity="1" transform="translate(0,621.9569092052841)"><line stroke="currentColor" x2="-6"/><text fill="currentColor" x="-9" dy="0.32em">Visitar Papas</text></g><g class="tick" opacity="1" transform="translate(0,638.925875445586)"><line stroke="currentColor" x2="-6"/><text fill="currentColor" x="-9" dy="0.32em">Dormir</text></g></g><text dx="-9" dy="-9" style="text-anchor: end; font-family: Arial, sans-serif; font-size: 12px; fill: rgb(123, 123, 123); font-weight: bold;">Tarea</text><text x="369.22138821851246" y="369.22138821851246" dx="3.4641016151377544" dy="-3.4641016151377544" transform="rotate(-45)" style="text-anchor: start; font-family: Arial, sans-serif; font-size: 12px; fill: rgb(123, 123, 123); font-weight: bold;">Semanal</text><rect x="9.901168148220755" y="9.912149930078208" rx="0" ry="0" width="3.6395290347900966" height="3.6395290347900966" style="fill: rgb(31, 119, 180);"/><rect x="28.01842978556399" y="28.0653913527176" rx="0" ry="0" width="1.2709786701152073" height="1.2709786701152073" style="fill: rgb(31, 119, 180);"/><rect x="44.37446919803971" y="44.457410550489485" rx="0" ry="0" width="2.4248727551753446" height="2.4248727551753446" style="fill: rgb(31, 119, 180);"/><rect x="59.89970237823714" y="60.018623515983066" rx="0" ry="0" width="5.2403793047920635" height="5.2403793047920635" style="fill: rgb(31, 119, 180);"/><rect x="78.38950143777613" y="78.54440236081822" rx="0" ry="0" width="2.1267540957256665" height="2.1267540957256665" style="fill: rgb(255, 127, 14);"/><rect x="94.54404186614371" y="94.73492257448197" rx="0" ry="0" width="3.683646149002058" height="3.683646149002058" style="fill: rgb(255, 127, 14);"/><rect x="111.81500915264665" y="112.04186964628106" rx="0" ry="0" width="3.0076844860077654" height="3.0076844860077654" style="fill: rgb(255, 127, 14);"/><rect x="129.5556941629263" y="129.81853444185688" rx="0" ry="0" width="1.3922873754600322" height="1.3922873754600322" style="fill: rgb(255, 127, 14);"/><rect x="145.97906806914537" y="146.2778881333721" rx="0" ry="0" width="2.411512473033502" height="2.411512473033502" style="fill: rgb(255, 127, 14);"/><rect x="94.54404186614371" y="162.61078753568975" rx="0" ry="0" width="3.683646149002058" height="3.683646149002058" style="fill: rgb(255, 127, 14);"/><rect x="162.51013577864558" y="179.81390186847042" rx="0" ry="0" width="3.2153499640446688" height="3.2153499640446688" style="fill: rgb(214, 39, 40);"/><rect x="180.15207957929178" y="197.49182545441278" rx="0" ry="0" width="1.797435272763846" height="1.797435272763846" style="fill: rgb(214, 39, 40);"/><rect x="195.80080611681663" y="213.17653177723378" rx="0" ry="0" width="4.365955107725718" height="4.365955107725718" style="fill: rgb(214, 39, 40);"/><rect x="212.4067883644841" y="229.81849381019742" rx="0" ry="0" width="5.019963522402329" height="5.019963522402329" style="fill: rgb(214, 39, 40);"/><rect x="230.40061793520053" y="247.84830316621" rx="0" ry="0" width="2.8982772909810866" height="2.8982772909810866" style="fill: rgb(148, 103, 189);"/><rect x="247.758047272591" y="265.2417122888967" rx="0" ry="0" width="2.049391526211703" height="2.049391526211703" style="fill: rgb(148, 103, 189);"/><rect x="264.57893160897066" y="282.0985764105725" rx="0" ry="0" width="2.273595763463907" height="2.273595763463907" style="fill: rgb(148, 103, 189);"/><rect x="180.15207957929178" y="299.30562289622446" rx="0" ry="0" width="1.797435272763846" height="1.797435272763846" style="fill: rgb(148, 103, 189);"/><rect x="281.6642201011602" y="316.1888109283601" rx="0" ry="0" width="1.9689916890964192" height="1.9689916890964192" style="fill: rgb(148, 103, 189);"/><rect x="297.6752343955414" y="332.2358050080375" rx="0" ry="0" width="3.8129360103456214" height="3.8129360103456214" style="fill: rgb(127, 127, 127);"/><rect x="315.41398903973203" y="350.0105394375243" rx="0" ry="0" width="2.2013996319758626" height="2.2013996319758626" style="fill: rgb(127, 127, 127);"/><rect x="129.5556941629263" y="367.38406180608416" rx="0" ry="0" width="1.3922873754600322" height="1.3922873754600322" style="fill: rgb(127, 127, 127);"/><rect x="332.8792763698598" y="384.48077279325014" rx="0" ry="0" width="1.1367978817319535" height="1.1367978817319535" style="fill: rgb(127, 127, 127);"/><rect x="129.5556941629263" y="401.32199428668804" rx="0" ry="0" width="1.3922873754600322" height="1.3922873754600322" style="fill: rgb(44, 160, 44);"/><rect x="349.2088773303917" y="417.81531977938016" rx="0" ry="0" width="2.3435688706796287" height="2.3435688706796287" style="fill: rgb(44, 160, 44);"/><rect x="366.7312126244896" y="435.37363485877427" rx="0" ry="0" width="1.164871192495449" height="1.164871192495449" style="fill: rgb(44, 160, 44);"/><rect x="230.40061793520053" y="451.4758980498334" rx="0" ry="0" width="2.8982772909810866" height="2.8982772909810866" style="fill: rgb(44, 160, 44);"/><rect x="162.51013577864558" y="468.2863279536035" rx="0" ry="0" width="3.2153499640446688" height="3.2153499640446688" style="fill: rgb(44, 160, 44);"/><rect x="297.6752343955414" y="484.956501170755" rx="0" ry="0" width="3.8129360103456214" height="3.8129360103456214" style="fill: rgb(227, 119, 194);"/><rect x="379.62893985099356" y="499.2142405914802" rx="0" ry="0" width="9.235389649499199" height="9.235389649499199" style="fill: rgb(227, 119, 194);"/><rect x="398.8188830278216" y="518.4401635536044" rx="0" ry="0" width="4.721476205854682" height="4.721476205854682" style="fill: rgb(227, 119, 194);"/><rect x="415.80376017337994" y="535.4610204844589" rx="0" ry="0" width="4.6176948247495995" height="4.6176948247495995" style="fill: rgb(227, 119, 194);"/><rect x="433.07660235166406" y="552.7698424480392" rx="0" ry="0" width="3.9379833781928384" height="3.9379833781928384" style="fill: rgb(140, 86, 75);"/><rect x="449.2378600564514" y="568.9670799381227" rx="0" ry="0" width="5.481440878629766" height="5.481440878629766" style="fill: rgb(140, 86, 75);"/><rect x="465.79831773502866" y="585.5635174019961" rx="0" ry="0" width="6.226498431486809" height="6.226498431486809" style="fill: rgb(140, 86, 75);"/><rect x="484.45226603031784" y="604.2534454825814" rx="0" ry="0" width="2.7845747509200645" height="2.7845747509200645" style="fill: rgb(140, 86, 75);"/><rect x="297.6752343955414" y="620.7082310931705" rx="0" ry="0" width="3.8129360103456214" height="3.8129360103456214" style="fill: rgb(140, 86, 75);"/><rect x="496.2249082818363" y="633.031033759698" rx="0" ry="0" width="13.105263157894736" height="13.105263157894736" style="fill: rgb(140, 86, 75);"/><g id="labels"><g transform="translate(11.720932665615804,11.731914447473256)"><text x="0" y="0" text-anchor="middle" dominant-baseline="text-before-edge" transform="translate(0,0)"/></g><g transform="translate(28.653919120621595,28.700880687775204)"><text x="0" y="0" text-anchor="middle" dominant-baseline="text-before-edge" transform="translate(0,0)"/></g><g transform="translate(45.586905575627384,45.669846928077156)"><text x="0" y="0" text-anchor="middle" dominant-baseline="text-before-edge" transform="translate(0,0)"/></g><g transform="translate(62.51989203063317,62.6388131683791)"><text x="0" y="0" text-anchor="middle" dominant-baseline="text-before-edge" transform="translate(0,0)"/></g><g transform="translate(79.45287848563896,79.60777940868105)"><text x="0" y="0" text-anchor="middle" dominant-baseline="text-before-edge" transform="translate(0,0)"/></g><g transform="translate(96.38586494064475,96.576745648983)"><text x="0" y="0" text-anchor="middle" dominant-baseline="text-before-edge" transform="translate(0,0)"/></g><g transform="translate(113.31885139565054,113.54571188928495)"><text x="0" y="0" text-anchor="middle" dominant-baseline="text-before-edge" transform="translate(0,0)"/></g><g transform="translate(130.25183785065633,130.51467812958688)"><text x="0" y="0" text-anchor="middle" dominant-baseline="text-before-edge" transform="translate(0,0)"/></g><g transform="translate(147.18482430566212,147.48364436988885)"><text x="0" y="0" text-anchor="middle" dominant-baseline="text-before-edge" transform="translate(0,0)"/></g><g transform="translate(96.38586494064475,164.4526106101908)"><text x="0" y="0" text-anchor="middle" dominant-baseline="text-before-edge" transform="translate(0,0)"/></g><g transform="translate(164.1178107606679,181.42157685049276)"><text x="0" y="0" text-anchor="middle" dominant-baseline="text-before-edge" transform="translate(0,0)"/></g><g transform="translate(181.0507972156737,198.3905430907947)"><text x="0" y="0" text-anchor="middle" dominant-baseline="text-before-edge" transform="translate(0,0)"/></g><g transform="translate(197.9837836706795,215.35950933109663)"><text x="0" y="0" text-anchor="middle" dominant-baseline="text-before-edge" transform="translate(0,0)"/></g><g transform="translate(214.91677012568528,232.3284755713986)"><text x="0" y="0" text-anchor="middle" dominant-baseline="text-before-edge" transform="translate(0,0)"/></g><g transform="translate(231.84975658069106,249.29744181170054)"><text x="0" y="0" text-anchor="middle" dominant-baseline="text-before-edge" transform="translate(0,0)"/></g><g transform="translate(248.78274303569685,266.2664080520025)"><text x="0" y="0" text-anchor="middle" dominant-baseline="text-before-edge" transform="translate(0,0)"/></g><g transform="translate(265.7157294907026,283.2353742923044)"><text x="0" y="0" text-anchor="middle" dominant-baseline="text-before-edge" transform="translate(0,0)"/></g><g transform="translate(181.0507972156737,300.20434053260635)"><text x="0" y="0" text-anchor="middle" dominant-baseline="text-before-edge" transform="translate(0,0)"/></g><g transform="translate(282.6487159457084,317.1733067729083)"><text x="0" y="0" text-anchor="middle" dominant-baseline="text-before-edge" transform="translate(0,0)"/></g><g transform="translate(299.58170240071416,334.1422730132103)"><text x="0" y="0" text-anchor="middle" dominant-baseline="text-before-edge" transform="translate(0,0)"/></g><g transform="translate(316.51468885571995,351.1112392535122)"><text x="0" y="0" text-anchor="middle" dominant-baseline="text-before-edge" transform="translate(0,0)"/></g><g transform="translate(130.25183785065633,368.08020549381416)"><text x="0" y="0" text-anchor="middle" dominant-baseline="text-before-edge" transform="translate(0,0)"/></g><g transform="translate(333.44767531072574,385.0491717341161)"><text x="0" y="0" text-anchor="middle" dominant-baseline="text-before-edge" transform="translate(0,0)"/></g><g transform="translate(130.25183785065633,402.01813797441804)"><text x="0" y="0" text-anchor="middle" dominant-baseline="text-before-edge" transform="translate(0,0)"/></g><g transform="translate(350.38066176573153,418.98710421472)"><text x="0" y="0" text-anchor="middle" dominant-baseline="text-before-edge" transform="translate(0,0)"/></g><g transform="translate(367.3136482207373,435.956070455022)"><text x="0" y="0" text-anchor="middle" dominant-baseline="text-before-edge" transform="translate(0,0)"/></g><g transform="translate(231.84975658069106,452.9250366953239)"><text x="0" y="0" text-anchor="middle" dominant-baseline="text-before-edge" transform="translate(0,0)"/></g><g transform="translate(164.1178107606679,469.89400293562585)"><text x="0" y="0" text-anchor="middle" dominant-baseline="text-before-edge" transform="translate(0,0)"/></g><g transform="translate(299.58170240071416,486.8629691759278)"><text x="0" y="0" text-anchor="middle" dominant-baseline="text-before-edge" transform="translate(0,0)"/></g><g transform="translate(384.2466346757431,503.8319354162297)"><text x="0" y="0" text-anchor="middle" dominant-baseline="text-before-edge" transform="translate(0,0)"/></g><g transform="translate(401.1796211307489,520.8009016565318)"><text x="0" y="0" text-anchor="middle" dominant-baseline="text-before-edge" transform="translate(0,0)"/></g><g transform="translate(418.1126075857547,537.7698678968337)"><text x="0" y="0" text-anchor="middle" dominant-baseline="text-before-edge" transform="translate(0,0)"/></g><g transform="translate(435.0455940407605,554.7388341371357)"><text x="0" y="0" text-anchor="middle" dominant-baseline="text-before-edge" transform="translate(0,0)"/></g><g transform="translate(451.97858049576627,571.7078003774376)"><text x="0" y="0" text-anchor="middle" dominant-baseline="text-before-edge" transform="translate(0,0)"/></g><g transform="translate(468.91156695077206,588.6767666177395)"><text x="0" y="0" text-anchor="middle" dominant-baseline="text-before-edge" transform="translate(0,0)"/></g><g transform="translate(485.84455340577784,605.6457328580415)"><text x="0" y="0" text-anchor="middle" dominant-baseline="text-before-edge" transform="translate(0,0)"/></g><g transform="translate(299.58170240071416,622.6146990983434)"><text x="0" y="0" text-anchor="middle" dominant-baseline="text-before-edge" transform="translate(0,0)"/></g><g transform="translate(502.77753986078363,639.5836653386453)"><text x="0" y="0" text-anchor="middle" dominant-baseline="text-before-edge" transform="translate(0,0)"/></g></g></g><g id="legend" transform="translate(800,100)"><g transform="translate(5,0)"><g class="legendSize" transform="translate(0,0)"><g class="legendCells" transform="translate(0,16)"><g class="cell" transform="translate(0, 0)"><rect class="swatch" height="1" width="1" fill="none" stroke="#ccc"/><text class="label" transform="translate( 18,&#10;          5.5)" font-family="&quot;Arial&quot;, sans-serif" font-size="10px"><tspan x="0" dy="0em">20.0</tspan></text></g><g class="cell" transform="translate(0, 21)"><rect class="swatch" height="13" width="13" fill="none" stroke="#ccc"/><text class="label" transform="translate( 18,&#10;          11.5)" font-family="&quot;Arial&quot;, sans-serif" font-size="10px"><tspan x="0" dy="0em">2658.0</tspan></text></g></g><text class="legendTitle" font-family="&quot;Arial&quot;, sans-serif" font-size="12px" font-weight="bold"><tspan x="0" dy="0em">Semanal</tspan></text></g><g class="legendColor" transform="translate(0,84.5)"><g class="legendCells" transform="translate(0,16)"><g class="cell" transform="translate(0, 0)"><rect class="swatch" height="15" width="15" style="fill: rgb(31, 119, 180);"/><text class="label" transform="translate( 20, 12.5)" font-family="&quot;Arial&quot;, sans-serif" font-size="10px"><tspan x="0" dy="0em">Aseo Personal</tspan></text></g><g class="cell" transform="translate(0, 21)"><rect class="swatch" height="15" width="15" style="fill: rgb(255, 127, 14);"/><text class="label" transform="translate( 20, 12.5)" font-family="&quot;Arial&quot;, sans-serif" font-size="10px"><tspan x="0" dy="0em">Bebida</tspan></text></g><g class="cell" transform="translate(0, 42)"><rect class="swatch" height="15" width="15" style="fill: rgb(44, 160, 44);"/><text class="label" transform="translate( 20, 12.5)" font-family="&quot;Arial&quot;, sans-serif" font-size="10px"><tspan x="0" dy="0em">Casa</tspan></text></g><g class="cell" transform="translate(0, 63)"><rect class="swatch" height="15" width="15" style="fill: rgb(214, 39, 40);"/><text class="label" transform="translate( 20, 12.5)" font-family="&quot;Arial&quot;, sans-serif" font-size="10px"><tspan x="0" dy="0em">Comer</tspan></text></g><g class="cell" transform="translate(0, 84)"><rect class="swatch" height="15" width="15" style="fill: rgb(148, 103, 189);"/><text class="label" transform="translate( 20, 12.5)" font-family="&quot;Arial&quot;, sans-serif" font-size="10px"><tspan x="0" dy="0em">Compras</tspan></text></g><g class="cell" transform="translate(0, 105)"><rect class="swatch" height="15" width="15" style="fill: rgb(140, 86, 75);"/><text class="label" transform="translate( 20, 12.5)" font-family="&quot;Arial&quot;, sans-serif" font-size="10px"><tspan x="0" dy="0em">Personal</tspan></text></g><g class="cell" transform="translate(0, 126)"><rect class="swatch" height="15" width="15" style="fill: rgb(227, 119, 194);"/><text class="label" transform="translate( 20, 12.5)" font-family="&quot;Arial&quot;, sans-serif" font-size="10px"><tspan x="0" dy="0em">Trabajo</tspan></text></g><g class="cell" transform="translate(0, 147)"><rect class="swatch" height="15" width="15" style="fill: rgb(127, 127, 127);"/><text class="label" transform="translate( 20, 12.5)" font-family="&quot;Arial&quot;, sans-serif" font-size="10px"><tspan x="0" dy="0em">Tramite</tspan></text></g></g><text class="legendTitle" font-family="&quot;Arial&quot;, sans-serif" font-size="12px" font-weight="bold"><tspan x="0" dy="0em">Categoría</tspan></text></g></g></g></svg>