<svg xmlns="http://www.w3.org/2000/svg" width="805" height="600"><rect width="805" height="600" x="0" y="0" fill="#FFFFFF" id="backgorund"/><g transform="translate(150,100)" id="viz"><g fill="none" font-size="10" font-family="sans-serif" text-anchor="middle"><path class="domain" stroke="currentColor" d="M0.5,0.5H555.5"/><g class="tick" opacity="1" transform="translate(8.426113360323843,0)"><line stroke="currentColor" y2="-6"/><text fill="currentColor" y="-9" dy="3.4641016151377544" dx="3.4641016151377544" text-anchor="start" transform="rotate(-45)">Dormir</text></g><g class="tick" opacity="1" transform="translate(22.97064777327931,0)"><line stroke="currentColor" y2="-6"/><text fill="currentColor" y="-9" dy="3.4641016151377544" dx="3.4641016151377544" text-anchor="start" transform="rotate(-45)">Programar</text></g><g class="tick" opacity="1" transform="translate(37.51518218623478,0)"><line stroke="currentColor" y2="-6"/><text fill="currentColor" y="-9" dy="3.4641016151377544" dx="3.4641016151377544" text-anchor="start" transform="rotate(-45)">ITBA</text></g><g class="tick" opacity="1" transform="translate(52.059716599190246,0)"><line stroke="currentColor" y2="-6"/><text fill="currentColor" y="-9" dy="3.4641016151377544" dx="3.4641016151377544" text-anchor="start" transform="rotate(-45)">Mobile</text></g><g class="tick" opacity="1" transform="translate(66.60425101214571,0)"><line stroke="currentColor" y2="-6"/><text fill="currentColor" y="-9" dy="3.4641016151377544" dx="3.4641016151377544" text-anchor="start" transform="rotate(-45)">Necesidades</text></g><g class="tick" opacity="1" transform="translate(81.14878542510118,0)"><line stroke="currentColor" y2="-6"/><text fill="currentColor" y="-9" dy="3.4641016151377544" dx="3.4641016151377544" text-anchor="start" transform="rotate(-45)">Cena</text></g><g class="tick" opacity="1" transform="translate(95.69331983805664,0)"><line stroke="currentColor" y2="-6"/><text fill="currentColor" y="-9" dy="3.4641016151377544" dx="3.4641016151377544" text-anchor="start" transform="rotate(-45)">Capacitación</text></g><g class="tick" opacity="1" transform="translate(110.23785425101211,0)"><line stroke="currentColor" y2="-6"/><text fill="currentColor" y="-9" dy="3.4641016151377544" dx="3.4641016151377544" text-anchor="start" transform="rotate(-45)">Relevamientos</text></g><g class="tick" opacity="1" transform="translate(124.78238866396758,0)"><line stroke="currentColor" y2="-6"/><text fill="currentColor" y="-9" dy="3.4641016151377544" dx="3.4641016151377544" text-anchor="start" transform="rotate(-45)">Almuerzo</text></g><g class="tick" opacity="1" transform="translate(139.32692307692307,0)"><line stroke="currentColor" y2="-6"/><text fill="currentColor" y="-9" dy="3.4641016151377544" dx="3.4641016151377544" text-anchor="start" transform="rotate(-45)">Caminar</text></g><g class="tick" opacity="1" transform="translate(153.87145748987854,0)"><line stroke="currentColor" y2="-6"/><text fill="currentColor" y="-9" dy="3.4641016151377544" dx="3.4641016151377544" text-anchor="start" transform="rotate(-45)">Colegio</text></g><g class="tick" opacity="1" transform="translate(168.415991902834,0)"><line stroke="currentColor" y2="-6"/><text fill="currentColor" y="-9" dy="3.4641016151377544" dx="3.4641016151377544" text-anchor="start" transform="rotate(-45)">Google Meet</text></g><g class="tick" opacity="1" transform="translate(182.96052631578945,0)"><line stroke="currentColor" y2="-6"/><text fill="currentColor" y="-9" dy="3.4641016151377544" dx="3.4641016151377544" text-anchor="start" transform="rotate(-45)">Visitar Papas</text></g><g class="tick" opacity="1" transform="translate(197.50506072874492,0)"><line stroke="currentColor" y2="-6"/><text fill="currentColor" y="-9" dy="3.4641016151377544" dx="3.4641016151377544" text-anchor="start" transform="rotate(-45)">Mate</text></g><g class="tick" opacity="1" transform="translate(212.0495951417004,0)"><line stroke="currentColor" y2="-6"/><text fill="currentColor" y="-9" dy="3.4641016151377544" dx="3.4641016151377544" text-anchor="start" transform="rotate(-45)">Licuados</text></g><g class="tick" opacity="1" transform="translate(226.59412955465586,0)"><line stroke="currentColor" y2="-6"/><text fill="currentColor" y="-9" dy="3.4641016151377544" dx="3.4641016151377544" text-anchor="start" transform="rotate(-45)">Bañarse</text></g><g class="tick" opacity="1" transform="translate(241.13866396761134,0)"><line stroke="currentColor" y2="-6"/><text fill="currentColor" y="-9" dy="3.4641016151377544" dx="3.4641016151377544" text-anchor="start" transform="rotate(-45)">Desayuno</text></g><g class="tick" opacity="1" transform="translate(255.6831983805668,0)"><line stroke="currentColor" y2="-6"/><text fill="currentColor" y="-9" dy="3.4641016151377544" dx="3.4641016151377544" text-anchor="start" transform="rotate(-45)">Hacer la Comida</text></g><g class="tick" opacity="1" transform="translate(270.22773279352225,0)"><line stroke="currentColor" y2="-6"/><text fill="currentColor" y="-9" dy="3.4641016151377544" dx="3.4641016151377544" text-anchor="start" transform="rotate(-45)">Agua</text></g><g class="tick" opacity="1" transform="translate(284.7722672064777,0)"><line stroke="currentColor" y2="-6"/><text fill="currentColor" y="-9" dy="3.4641016151377544" dx="3.4641016151377544" text-anchor="start" transform="rotate(-45)">Carrefour</text></g><g class="tick" opacity="1" transform="translate(299.3168016194332,0)"><line stroke="currentColor" y2="-6"/><text fill="currentColor" y="-9" dy="3.4641016151377544" dx="3.4641016151377544" text-anchor="start" transform="rotate(-45)">Colgar la ropa</text></g><g class="tick" opacity="1" transform="translate(313.86133603238864,0)"><line stroke="currentColor" y2="-6"/><text fill="currentColor" y="-9" dy="3.4641016151377544" dx="3.4641016151377544" text-anchor="start" transform="rotate(-45)">Netflix-Disney-Tv</text></g><g class="tick" opacity="1" transform="translate(328.40587044534414,0)"><line stroke="currentColor" y2="-6"/><text fill="currentColor" y="-9" dy="3.4641016151377544" dx="3.4641016151377544" text-anchor="start" transform="rotate(-45)">Cambiarme</text></g><g class="tick" opacity="1" transform="translate(342.9504048582996,0)"><line stroke="currentColor" y2="-6"/><text fill="currentColor" y="-9" dy="3.4641016151377544" dx="3.4641016151377544" text-anchor="start" transform="rotate(-45)">Cerveza</text></g><g class="tick" opacity="1" transform="translate(357.494939271255,0)"><line stroke="currentColor" y2="-6"/><text fill="currentColor" y="-9" dy="3.4641016151377544" dx="3.4641016151377544" text-anchor="start" transform="rotate(-45)">Lavarropa</text></g><g class="tick" opacity="1" transform="translate(372.0394736842105,0)"><line stroke="currentColor" y2="-6"/><text fill="currentColor" y="-9" dy="3.4641016151377544" dx="3.4641016151377544" text-anchor="start" transform="rotate(-45)">Almacen</text></g><g class="tick" opacity="1" transform="translate(386.58400809716596,0)"><line stroke="currentColor" y2="-6"/><text fill="currentColor" y="-9" dy="3.4641016151377544" dx="3.4641016151377544" text-anchor="start" transform="rotate(-45)">Uom</text></g><g class="tick" opacity="1" transform="translate(401.12854251012146,0)"><line stroke="currentColor" y2="-6"/><text fill="currentColor" y="-9" dy="3.4641016151377544" dx="3.4641016151377544" text-anchor="start" transform="rotate(-45)">Te</text></g><g class="tick" opacity="1" transform="translate(415.6730769230769,0)"><line stroke="currentColor" y2="-6"/><text fill="currentColor" y="-9" dy="3.4641016151377544" dx="3.4641016151377544" text-anchor="start" transform="rotate(-45)">El Chino</text></g><g class="tick" opacity="1" transform="translate(430.2176113360324,0)"><line stroke="currentColor" y2="-6"/><text fill="currentColor" y="-9" dy="3.4641016151377544" dx="3.4641016151377544" text-anchor="start" transform="rotate(-45)">Verdularía</text></g><g class="tick" opacity="1" transform="translate(444.76214574898785,0)"><line stroke="currentColor" y2="-6"/><text fill="currentColor" y="-9" dy="3.4641016151377544" dx="3.4641016151377544" text-anchor="start" transform="rotate(-45)">Merienda</text></g><g class="tick" opacity="1" transform="translate(459.30668016194335,0)"><line stroke="currentColor" y2="-6"/><text fill="currentColor" y="-9" dy="3.4641016151377544" dx="3.4641016151377544" text-anchor="start" transform="rotate(-45)">Carniceria</text></g><g class="tick" opacity="1" transform="translate(473.8512145748988,0)"><line stroke="currentColor" y2="-6"/><text fill="currentColor" y="-9" dy="3.4641016151377544" dx="3.4641016151377544" text-anchor="start" transform="rotate(-45)">Vino</text></g><g class="tick" opacity="1" transform="translate(488.39574898785423,0)"><line stroke="currentColor" y2="-6"/><text fill="currentColor" y="-9" dy="3.4641016151377544" dx="3.4641016151377544" text-anchor="start" transform="rotate(-45)">Pago de Servicios.</text></g><g class="tick" opacity="1" transform="translate(502.94028340080973,0)"><line stroke="currentColor" y2="-6"/><text fill="currentColor" y="-9" dy="3.4641016151377544" dx="3.4641016151377544" text-anchor="start" transform="rotate(-45)">Barrer el Pasillo</text></g><g class="tick" opacity="1" transform="translate(517.4848178137652,0)"><line stroke="currentColor" y2="-6"/><text fill="currentColor" y="-9" dy="3.4641016151377544" dx="3.4641016151377544" text-anchor="start" transform="rotate(-45)">Afeitarse</text></g><g class="tick" opacity="1" transform="translate(532.0293522267207,0)"><line stroke="currentColor" y2="-6"/><text fill="currentColor" y="-9" dy="3.4641016151377544" dx="3.4641016151377544" text-anchor="start" transform="rotate(-45)">Hacer la Cama</text></g><g class="tick" opacity="1" transform="translate(546.5738866396762,0)"><line stroke="currentColor" y2="-6"/><text fill="currentColor" y="-9" dy="3.4641016151377544" dx="3.4641016151377544" text-anchor="start" transform="rotate(-45)">Cajero Automático</text></g></g><g fill="none" font-size="10" font-family="sans-serif" text-anchor="end"><path class="domain" stroke="currentColor" d="M0.5,0.5V117.34210526315789"/><g class="tick" opacity="1" transform="translate(0,8.296746215590149)"><line stroke="currentColor" x2="-6"/><text fill="currentColor" x="-9" dy="0.32em">Personal</text></g><g class="tick" opacity="1" transform="translate(0,22.617976620158373)"><line stroke="currentColor" x2="-6"/><text fill="currentColor" x="-9" dy="0.32em">Trabajo</text></g><g class="tick" opacity="1" transform="translate(0,36.9392070247266)"><line stroke="currentColor" x2="-6"/><text fill="currentColor" x="-9" dy="0.32em">Comer</text></g><g class="tick" opacity="1" transform="translate(0,51.260437429294825)"><line stroke="currentColor" x2="-6"/><text fill="currentColor" x="-9" dy="0.32em">Bebida</text></g><g class="tick" opacity="1" transform="translate(0,65.58166783386305)"><line stroke="currentColor" x2="-6"/><text fill="currentColor" x="-9" dy="0.32em">Aseo Personal</text></g><g class="tick" opacity="1" transform="translate(0,79.90289823843128)"><line stroke="currentColor" x2="-6"/><text fill="currentColor" x="-9" dy="0.32em">Casa</text></g><g class="tick" opacity="1" transform="translate(0,94.22412864299952)"><line stroke="currentColor" x2="-6"/><text fill="currentColor" x="-9" dy="0.32em">Compras</text></g><g class="tick" opacity="1" transform="translate(0,108.54535904756773)"><line stroke="currentColor" x2="-6"/><text fill="currentColor" x="-9" dy="0.32em">Tramite</text></g></g><text dx="-9" dy="-9" style="text-anchor: end; font-family: Arial, sans-serif; font-size: 12px; fill: rgb(123, 123, 123); font-weight: bold;">Categoría</text><text x="398.8082245892128" y="398.8082245892128" dx="3.4641016151377544" dy="-3.4641016151377544" transform="rotate(-45)" style="text-anchor: start; font-family: Arial, sans-serif; font-size: 12px; fill: rgb(123, 123, 123); font-weight: bold;">Tarea</text><rect x="225.02800433030453" y="64.10947947316522" rx="0" ry="0" width="3.5006715013342493" height="3.5006715013342493" style="fill: rgb(31, 119, 180);"/><rect x="517.0577845820637" y="65.24857146581509" rx="0" ry="0" width="1.2224875160345066" height="1.2224875160345066" style="fill: rgb(31, 119, 180);"/><rect x="327.4239022068718" y="64.6936364590442" rx="0" ry="0" width="2.332357529576285" height="2.332357529576285" style="fill: rgb(31, 119, 180);"/><rect x="64.26823896115688" y="63.339592646527734" rx="0" ry="0" width="5.040445154609234" height="5.040445154609234" style="fill: rgb(31, 119, 180);"/><rect x="400.28994659883426" y="50.515778381661114" rx="0" ry="0" width="2.0456128752060123" height="2.0456128752060123" style="fill: rgb(255, 127, 14);"/><rect x="195.91771853882378" y="49.76703210302719" rx="0" ry="0" width="3.543105432473867" height="3.543105432473867" style="fill: rgb(255, 127, 14);"/><rect x="268.96547658409736" y="50.09211808352344" rx="0" ry="0" width="2.892933471481365" height="2.892933471481365" style="fill: rgb(255, 127, 14);"/><rect x="473.36584111241405" y="50.86900083046356" rx="0" ry="0" width="1.3391679776011154" height="1.3391679776011154" style="fill: rgb(255, 127, 14);"/><rect x="341.9748618960782" y="50.378831330726925" rx="0" ry="0" width="2.319506977074392" height="2.319506977074392" style="fill: rgb(255, 127, 14);"/><rect x="210.46225295177925" y="49.76703210302719" rx="0" ry="0" width="3.543105432473867" height="3.543105432473867" style="fill: rgb(255, 127, 14);"/><rect x="239.77653650921084" y="35.67101642997963" rx="0" ry="0" width="3.092675969432523" height="3.092675969432523" style="fill: rgb(214, 39, 40);"/><rect x="444.08192706279976" y="36.352925202192" rx="0" ry="0" width="1.7288584250077959" height="1.7288584250077959" style="fill: rgb(214, 39, 40);"/><rect x="122.86690792863617" y="35.11766315304869" rx="0" ry="0" width="4.199382523294415" height="4.199382523294415" style="fill: rgb(214, 39, 40);"/><rect x="78.91877654656686" y="34.80313500984578" rx="0" ry="0" width="4.828438809700232" height="4.828438809700232" style="fill: rgb(214, 39, 40);"/><rect x="283.56262750952044" y="93.10842580969577" rx="0" ry="0" width="2.7877004465460655" height="2.7877004465460655" style="fill: rgb(148, 103, 189);"/><rect x="414.87168650455794" y="93.51667508813406" rx="0" ry="0" width="1.9712018896694894" height="1.9712018896694894" style="fill: rgb(148, 103, 189);"/><rect x="371.13025813552713" y="93.4088499579696" rx="0" ry="0" width="2.186852149998417" height="2.186852149998417" style="fill: rgb(148, 103, 189);"/><rect x="458.62646147575526" y="93.63784682046492" rx="0" ry="0" width="1.7288584250077959" height="1.7288584250077959" style="fill: rgb(148, 103, 189);"/><rect x="429.4548871042386" y="93.55534127485919" rx="0" ry="0" width="1.8938695162192467" height="1.8938695162192467" style="fill: rgb(148, 103, 189);"/><rect x="152.22193674214256" y="106.98977516348526" rx="0" ry="0" width="3.6674625481035195" height="3.6674625481035195" style="fill: rgb(127, 127, 127);"/><rect x="385.70951337878654" y="107.7648011928418" rx="0" ry="0" width="2.117410489390438" height="2.117410489390438" style="fill: rgb(127, 127, 127);"/><rect x="487.9103755253695" y="108.15392244873647" rx="0" ry="0" width="1.3391679776011154" height="1.3391679776011154" style="fill: rgb(127, 127, 127);"/><rect x="546.2113841284923" y="108.27679340003742" rx="0" ry="0" width="1.0934260749992084" height="1.0934260749992084" style="fill: rgb(127, 127, 127);"/><rect x="502.454909938325" y="79.51146163960001" rx="0" ry="0" width="1.3391679776011154" height="1.3391679776011154" style="fill: rgb(44, 160, 44);"/><rect x="356.5520719973143" y="79.053967828144" rx="0" ry="0" width="2.254155600513137" height="2.254155600513137" style="fill: rgb(44, 160, 44);"/><rect x="531.6533485951998" y="79.6208314705639" rx="0" ry="0" width="1.1204283156733332" height="1.1204283156733332" style="fill: rgb(44, 160, 44);"/><rect x="298.10716192247594" y="78.78719540512753" rx="0" ry="0" width="2.7877004465460655" height="2.7877004465460655" style="fill: rgb(44, 160, 44);"/><rect x="254.3210709221663" y="78.63470764368431" rx="0" ry="0" width="3.092675969432523" height="3.092675969432523" style="fill: rgb(44, 160, 44);"/><rect x="166.76647115509803" y="21.06239273607591" rx="0" ry="0" width="3.6674625481035195" height="3.6674625481035195" style="fill: rgb(227, 119, 194);"/><rect x="18.713340586633137" y="18.454606297165707" rx="0" ry="0" width="8.883035425923927" height="8.883035425923927" style="fill: rgb(227, 119, 194);"/><rect x="93.60686058264112" y="20.62545422839635" rx="0" ry="0" width="4.5413395634626355" height="4.5413395634626355" style="fill: rgb(227, 119, 194);"/><rect x="108.20130592084692" y="20.675365153646688" rx="0" ry="0" width="4.441517712961963" height="4.441517712961963" style="fill: rgb(227, 119, 194);"/><rect x="137.6172640870196" y="6.681024089340197" rx="0" ry="0" width="3.7877390324384934" height="3.7877390324384934" style="fill: rgb(140, 86, 75);"/><rect x="49.60777232544212" y="5.938738805495531" rx="0" ry="0" width="5.272309600127827" height="5.272309600127827" style="fill: rgb(140, 86, 75);"/><rect x="34.70492208134356" y="5.580422974352434" rx="0" ry="0" width="5.988941262414019" height="5.988941262414019" style="fill: rgb(140, 86, 75);"/><rect x="312.7063785811033" y="7.235725627958328" rx="0" ry="0" width="2.678335955202231" height="2.678335955202231" style="fill: rgb(140, 86, 75);"/><rect x="181.31100556805347" y="6.7411623315076845" rx="0" ry="0" width="3.6674625481035195" height="3.6674625481035195" style="fill: rgb(140, 86, 75);"/><rect x="2.307692307692264" y="2.2722620266120757" rx="0" ry="0" width="12.605263157894736" height="12.605263157894736" style="fill: rgb(140, 86, 75);"/><g id="labels"><g transform="translate(226.77834008097165,65.85981522383234)"><text x="0" y="0" text-anchor="middle" dominant-baseline="text-before-edge" transform="translate(0,0)"/></g><g transform="translate(517.669028340081,65.85981522383234)"><text x="0" y="0" text-anchor="middle" dominant-baseline="text-before-edge" transform="translate(0,0)"/></g><g transform="translate(328.5900809716599,65.85981522383234)"><text x="0" y="0" text-anchor="middle" dominant-baseline="text-before-edge" transform="translate(0,0)"/></g><g transform="translate(66.7884615384615,65.85981522383234)"><text x="0" y="0" text-anchor="middle" dominant-baseline="text-before-edge" transform="translate(0,0)"/></g><g transform="translate(401.31275303643724,51.53858481926412)"><text x="0" y="0" text-anchor="middle" dominant-baseline="text-before-edge" transform="translate(0,0)"/></g><g transform="translate(197.6892712550607,51.53858481926412)"><text x="0" y="0" text-anchor="middle" dominant-baseline="text-before-edge" transform="translate(0,0)"/></g><g transform="translate(270.41194331983803,51.53858481926412)"><text x="0" y="0" text-anchor="middle" dominant-baseline="text-before-edge" transform="translate(0,0)"/></g><g transform="translate(474.03542510121457,51.53858481926412)"><text x="0" y="0" text-anchor="middle" dominant-baseline="text-before-edge" transform="translate(0,0)"/></g><g transform="translate(343.13461538461536,51.53858481926412)"><text x="0" y="0" text-anchor="middle" dominant-baseline="text-before-edge" transform="translate(0,0)"/></g><g transform="translate(212.23380566801617,51.53858481926412)"><text x="0" y="0" text-anchor="middle" dominant-baseline="text-before-edge" transform="translate(0,0)"/></g><g transform="translate(241.32287449392712,37.2173544146959)"><text x="0" y="0" text-anchor="middle" dominant-baseline="text-before-edge" transform="translate(0,0)"/></g><g transform="translate(444.94635627530363,37.2173544146959)"><text x="0" y="0" text-anchor="middle" dominant-baseline="text-before-edge" transform="translate(0,0)"/></g><g transform="translate(124.96659919028338,37.2173544146959)"><text x="0" y="0" text-anchor="middle" dominant-baseline="text-before-edge" transform="translate(0,0)"/></g><g transform="translate(81.33299595141698,37.2173544146959)"><text x="0" y="0" text-anchor="middle" dominant-baseline="text-before-edge" transform="translate(0,0)"/></g><g transform="translate(284.9564777327935,94.50227603296881)"><text x="0" y="0" text-anchor="middle" dominant-baseline="text-before-edge" transform="translate(0,0)"/></g><g transform="translate(415.8572874493927,94.50227603296881)"><text x="0" y="0" text-anchor="middle" dominant-baseline="text-before-edge" transform="translate(0,0)"/></g><g transform="translate(372.2236842105263,94.50227603296881)"><text x="0" y="0" text-anchor="middle" dominant-baseline="text-before-edge" transform="translate(0,0)"/></g><g transform="translate(459.4908906882591,94.50227603296881)"><text x="0" y="0" text-anchor="middle" dominant-baseline="text-before-edge" transform="translate(0,0)"/></g><g transform="translate(430.4018218623482,94.50227603296881)"><text x="0" y="0" text-anchor="middle" dominant-baseline="text-before-edge" transform="translate(0,0)"/></g><g transform="translate(154.05566801619432,108.82350643753702)"><text x="0" y="0" text-anchor="middle" dominant-baseline="text-before-edge" transform="translate(0,0)"/></g><g transform="translate(386.76821862348174,108.82350643753702)"><text x="0" y="0" text-anchor="middle" dominant-baseline="text-before-edge" transform="translate(0,0)"/></g><g transform="translate(488.57995951417,108.82350643753702)"><text x="0" y="0" text-anchor="middle" dominant-baseline="text-before-edge" transform="translate(0,0)"/></g><g transform="translate(546.758097165992,108.82350643753702)"><text x="0" y="0" text-anchor="middle" dominant-baseline="text-before-edge" transform="translate(0,0)"/></g><g transform="translate(503.1244939271255,80.18104562840057)"><text x="0" y="0" text-anchor="middle" dominant-baseline="text-before-edge" transform="translate(0,0)"/></g><g transform="translate(357.6791497975708,80.18104562840057)"><text x="0" y="0" text-anchor="middle" dominant-baseline="text-before-edge" transform="translate(0,0)"/></g><g transform="translate(532.2135627530365,80.18104562840057)"><text x="0" y="0" text-anchor="middle" dominant-baseline="text-before-edge" transform="translate(0,0)"/></g><g transform="translate(299.501012145749,80.18104562840057)"><text x="0" y="0" text-anchor="middle" dominant-baseline="text-before-edge" transform="translate(0,0)"/></g><g transform="translate(255.8674089068826,80.18104562840057)"><text x="0" y="0" text-anchor="middle" dominant-baseline="text-before-edge" transform="translate(0,0)"/></g><g transform="translate(168.6002024291498,22.89612401012767)"><text x="0" y="0" text-anchor="middle" dominant-baseline="text-before-edge" transform="translate(0,0)"/></g><g transform="translate(23.154858299595098,22.89612401012767)"><text x="0" y="0" text-anchor="middle" dominant-baseline="text-before-edge" transform="translate(0,0)"/></g><g transform="translate(95.87753036437243,22.89612401012767)"><text x="0" y="0" text-anchor="middle" dominant-baseline="text-before-edge" transform="translate(0,0)"/></g><g transform="translate(110.4220647773279,22.89612401012767)"><text x="0" y="0" text-anchor="middle" dominant-baseline="text-before-edge" transform="translate(0,0)"/></g><g transform="translate(139.51113360323885,8.574893605559444)"><text x="0" y="0" text-anchor="middle" dominant-baseline="text-before-edge" transform="translate(0,0)"/></g><g transform="translate(52.24392712550603,8.574893605559444)"><text x="0" y="0" text-anchor="middle" dominant-baseline="text-before-edge" transform="translate(0,0)"/></g><g transform="translate(37.69939271255057,8.574893605559444)"><text x="0" y="0" text-anchor="middle" dominant-baseline="text-before-edge" transform="translate(0,0)"/></g><g transform="translate(314.0455465587044,8.574893605559444)"><text x="0" y="0" text-anchor="middle" dominant-baseline="text-before-edge" transform="translate(0,0)"/></g><g transform="translate(183.14473684210523,8.574893605559444)"><text x="0" y="0" text-anchor="middle" dominant-baseline="text-before-edge" transform="translate(0,0)"/></g><g transform="translate(8.610323886639632,8.574893605559444)"><text x="0" y="0" text-anchor="middle" dominant-baseline="text-before-edge" transform="translate(0,0)"/></g></g></g></svg>
